solid OpenSCAD_Model
  facet normal 0 0 -1
    outer loop
      vertex -18.058 38.7914 0
      vertex -27.844 67.358 0
      vertex -20.1019 71.4296 0
    endloop
  endfacet
  facet normal 0 0 -1
    outer loop
      vertex -65.0124 29.9342 0
      vertex -18.058 38.7914 0
      vertex -8.91681 4.33493 0
    endloop
  endfacet
  facet normal 0 0 -1
    outer loop
      vertex -18.058 38.7914 0
      vertex -34.8224 62.9528 0
      vertex -27.844 67.358 0
    endloop
  endfacet
  facet normal 0 0 -1
    outer loop
      vertex -18.058 38.7914 0
      vertex -41.4242 58.0016 0
      vertex -34.8224 62.9528 0
    endloop
  endfacet
  facet normal 0 0 -1
    outer loop
      vertex -18.058 38.7914 0
      vertex -47.5937 52.5244 0
      vertex -41.4242 58.0016 0
    endloop
  endfacet
  facet normal 0 0 -1
    outer loop
      vertex -65.0124 29.9342 0
      vertex -8.91681 4.33493 0
      vertex -52.2718 -14.5965 0
    endloop
  endfacet
  facet normal 0 0 -1
    outer loop
      vertex -18.058 38.7914 0
      vertex -53.2751 46.5413 0
      vertex -47.5937 52.5244 0
    endloop
  endfacet
  facet normal 0 0 -1
    outer loop
      vertex 31.3782 -53.1 0
      vertex 32.4372 -29.5346 0
      vertex 36.0848 -48.7943 0
    endloop
  endfacet
  facet normal 0 0 -1
    outer loop
      vertex 21.6038 -61.298 0
      vertex 32.4372 -29.5346 0
      vertex 31.3782 -53.1 0
    endloop
  endfacet
  facet normal 0 0 -1
    outer loop
      vertex -19.7485 -51.6946 0
      vertex 21.6038 -61.298 0
      vertex 11.4457 -69.0271 0
    endloop
  endfacet
  facet normal 0 0 -1
    outer loop
      vertex -19.7485 -51.6946 0
      vertex 11.4457 -69.0271 0
      vertex 1.02164 -76.3863 0
    endloop
  endfacet
  facet normal 0 0 -1
    outer loop
      vertex 21.6038 -61.298 0
      vertex -19.7485 -51.6946 0
      vertex 32.4372 -29.5346 0
    endloop
  endfacet
  facet normal 0 0 -1
    outer loop
      vertex -19.7485 -51.6946 0
      vertex 1.02164 -76.3863 0
      vertex -3.60327 -79.236 0
    endloop
  endfacet
  facet normal 0 0 -1
    outer loop
      vertex -19.7485 -51.6946 0
      vertex -3.60327 -79.236 0
      vertex -8.44197 -81.7411 0
    endloop
  endfacet
  facet normal 0 0 -1
    outer loop
      vertex -19.7485 -51.6946 0
      vertex -8.44197 -81.7411 0
      vertex -13.5103 -83.6741 0
    endloop
  endfacet
  facet normal 0 0 -1
    outer loop
      vertex -19.7485 -51.6946 0
      vertex -13.5103 -83.6741 0
      vertex -16.1356 -84.355 0
    endloop
  endfacet
  facet normal 0 0 -1
    outer loop
      vertex -19.7485 -51.6946 0
      vertex -16.1356 -84.355 0
      vertex -18.8242 -84.8078 0
    endloop
  endfacet
  facet normal -0 0 -1
    outer loop
      vertex 32.4372 -29.5346 0
      vertex -19.7485 -51.6946 0
      vertex -1.42099 -6.20889 0
    endloop
  endfacet
  facet normal 0 0 -1
    outer loop
      vertex -34.3288 -77.2842 0
      vertex -18.8242 -84.8078 0
      vertex -23.0322 -84.8078 0
    endloop
  endfacet
  facet normal 0 0 -1
    outer loop
      vertex 32.4372 -29.5346 0
      vertex 55.654 -27.1088 0
      vertex 50.9217 -33.0873 0
    endloop
  endfacet
  facet normal 0 0 -1
    outer loop
      vertex 55.654 -27.1088 0
      vertex 49.0605 48.2085 0
      vertex 52.2718 51.6946 0
    endloop
  endfacet
  facet normal 0 0 -1
    outer loop
      vertex 32.4372 -29.5346 0
      vertex 50.9217 -33.0873 0
      vertex 45.9099 -38.8309 0
    endloop
  endfacet
  facet normal 0 0 -1
    outer loop
      vertex 55.654 -27.1088 0
      vertex 45.7835 44.7774 0
      vertex 49.0605 48.2085 0
    endloop
  endfacet
  facet normal 0 0 -1
    outer loop
      vertex 32.4372 -29.5346 0
      vertex 45.9099 -38.8309 0
      vertex 40.6513 -44.3343 0
    endloop
  endfacet
  facet normal 0 0 -1
    outer loop
      vertex 32.4372 -29.5346 0
      vertex 40.6513 -44.3343 0
      vertex 36.0848 -48.7943 0
    endloop
  endfacet
  facet normal -0 0 -1
    outer loop
      vertex 55.654 -27.1088 0
      vertex 32.4372 -29.5346 0
      vertex 29.917 -26.9494 0
    endloop
  endfacet
  facet normal 0 0 -1
    outer loop
      vertex 55.654 -27.1088 0
      vertex 29.917 -26.9494 0
      vertex 45.7835 44.7774 0
    endloop
  endfacet
  facet normal 0 0 -1
    outer loop
      vertex 45.7835 44.7774 0
      vertex 29.917 -26.9494 0
      vertex 2.91958 -0.23142 0
    endloop
  endfacet
  facet normal 0 0 -1
    outer loop
      vertex 52.2718 51.6946 0
      vertex 80.8567 47.3625 0
      vertex 80.8567 43.0361 0
    endloop
  endfacet
  facet normal 0 0 -1
    outer loop
      vertex 52.2718 51.6946 0
      vertex 80.8567 43.0361 0
      vertex 80.2749 33.6273 0
    endloop
  endfacet
  facet normal 0 0 -1
    outer loop
      vertex 80.8567 47.3625 0
      vertex 52.2718 51.6946 0
      vertex 80.3451 56.2596 0
    endloop
  endfacet
  facet normal 0 0 -1
    outer loop
      vertex 52.2718 51.6946 0
      vertex 80.2749 33.6273 0
      vertex 78.9418 24.2962 0
    endloop
  endfacet
  facet normal -0 0 -1
    outer loop
      vertex 80.3451 56.2596 0
      vertex 52.2718 51.6946 0
      vertex 79.2342 65.0995 0
    endloop
  endfacet
  facet normal 0 0 -1
    outer loop
      vertex 52.2718 51.6946 0
      vertex 78.9418 24.2962 0
      vertex 76.8466 15.1084 0
    endloop
  endfacet
  facet normal -0 0 -1
    outer loop
      vertex 79.2342 65.0995 0
      vertex 52.2718 51.6946 0
      vertex 77.5566 73.8516 0
    endloop
  endfacet
  facet normal 0 0 -1
    outer loop
      vertex 52.2718 51.6946 0
      vertex 76.8466 15.1084 0
      vertex 73.9789 6.12986 0
    endloop
  endfacet
  facet normal 0 0 -1
    outer loop
      vertex 52.2718 51.6946 0
      vertex 73.9789 6.12986 0
      vertex 71.1345 -0.946879 0
    endloop
  endfacet
  facet normal 0 -0 -1
    outer loop
      vertex 63.0569 84.0708 0
      vertex 77.5566 73.8516 0
      vertex 52.2718 51.6946 0
    endloop
  endfacet
  facet normal 0 0 -1
    outer loop
      vertex 52.2718 51.6946 0
      vertex 71.1345 -0.946879 0
      vertex 67.8471 -7.81425 0
    endloop
  endfacet
  facet normal 0 0 -1
    outer loop
      vertex 52.2718 51.6946 0
      vertex 67.8471 -7.81425 0
      vertex 64.1495 -14.4671 0
    endloop
  endfacet
  facet normal 0 0 -1
    outer loop
      vertex 77.5566 73.8516 0
      vertex 69.2176 83.4104 0
      vertex 75.3449 82.4851 0
    endloop
  endfacet
  facet normal 0 0 -1
    outer loop
      vertex 52.2718 51.6946 0
      vertex 64.1495 -14.4671 0
      vertex 60.0742 -20.9003 0
    endloop
  endfacet
  facet normal 0 0 -1
    outer loop
      vertex 52.2718 51.6946 0
      vertex 60.0742 -20.9003 0
      vertex 55.654 -27.1088 0
    endloop
  endfacet
  facet normal 0 0 -1
    outer loop
      vertex 77.5566 73.8516 0
      vertex 63.0569 84.0708 0
      vertex 69.2176 83.4104 0
    endloop
  endfacet
  facet normal 0 0 -1
    outer loop
      vertex 52.2718 51.6946 0
      vertex 50.6843 84.8078 0
      vertex 63.0569 84.0708 0
    endloop
  endfacet
  facet normal 0 0 -1
    outer loop
      vertex 52.2718 51.6946 0
      vertex 40.5215 84.8078 0
      vertex 50.6843 84.8078 0
    endloop
  endfacet
  facet normal 0 0 -1
    outer loop
      vertex 52.2718 51.6946 0
      vertex 31.4648 84.3249 0
      vertex 40.5215 84.8078 0
    endloop
  endfacet
  facet normal 0 0 -1
    outer loop
      vertex 52.2718 51.6946 0
      vertex 22.4391 83.4214 0
      vertex 31.4648 84.3249 0
    endloop
  endfacet
  facet normal 0 0 -1
    outer loop
      vertex 52.2718 51.6946 0
      vertex 13.4764 82.0447 0
      vertex 22.4391 83.4214 0
    endloop
  endfacet
  facet normal 0 0 -1
    outer loop
      vertex -18.058 38.7914 0
      vertex 13.4764 82.0447 0
      vertex 52.2718 51.6946 0
    endloop
  endfacet
  facet normal 0 0 -1
    outer loop
      vertex -18.058 38.7914 0
      vertex 52.2718 51.6946 0
      vertex 0.0465641 7.76393 0
    endloop
  endfacet
  facet normal 0 0 -1
    outer loop
      vertex 13.4764 82.0447 0
      vertex -18.058 38.7914 0
      vertex 4.60868 80.1426 0
    endloop
  endfacet
  facet normal 0 0 -1
    outer loop
      vertex 4.60868 80.1426 0
      vertex -18.058 38.7914 0
      vertex -3.81763 77.795 0
    endloop
  endfacet
  facet normal 0 0 -1
    outer loop
      vertex -3.81763 77.795 0
      vertex -18.058 38.7914 0
      vertex -12.0738 74.8997 0
    endloop
  endfacet
  facet normal 0 0 -1
    outer loop
      vertex -12.0738 74.8997 0
      vertex -18.058 38.7914 0
      vertex -20.1019 71.4296 0
    endloop
  endfacet
  facet normal 0 0 -1
    outer loop
      vertex -33.0877 -79.0984 0
      vertex -23.0322 -84.8078 0
      vertex -25.938 -84.1899 0
    endloop
  endfacet
  facet normal 0 0 -1
    outer loop
      vertex -33.0877 -79.0984 0
      vertex -25.938 -84.1899 0
      vertex -28.6494 -82.9913 0
    endloop
  endfacet
  facet normal 0 0 -1
    outer loop
      vertex -18.8242 -84.8078 0
      vertex -34.3288 -77.2842 0
      vertex -19.7485 -51.6946 0
    endloop
  endfacet
  facet normal 0 0 -1
    outer loop
      vertex -33.0877 -79.0984 0
      vertex -28.6494 -82.9913 0
      vertex -31.0661 -81.2736 0
    endloop
  endfacet
  facet normal 0 0 -1
    outer loop
      vertex -23.0322 -84.8078 0
      vertex -33.0877 -79.0984 0
      vertex -34.3288 -77.2842 0
    endloop
  endfacet
  facet normal 0 0 -1
    outer loop
      vertex -19.7485 -51.6946 0
      vertex -34.3288 -77.2842 0
      vertex -35.375 -75.3667 0
    endloop
  endfacet
  facet normal 0 0 -1
    outer loop
      vertex -19.7485 -51.6946 0
      vertex -35.375 -75.3667 0
      vertex -36.9482 -71.2918 0
    endloop
  endfacet
  facet normal 0 0 -1
    outer loop
      vertex -19.7485 -51.6946 0
      vertex -36.9482 -71.2918 0
      vertex -37.9387 -67.0132 0
    endloop
  endfacet
  facet normal 0 0 -1
    outer loop
      vertex -19.7485 -51.6946 0
      vertex -37.9387 -67.0132 0
      vertex -38.4782 -62.6703 0
    endloop
  endfacet
  facet normal 0 0 -1
    outer loop
      vertex -19.7485 -51.6946 0
      vertex -38.4782 -62.6703 0
      vertex -39.4857 -51.7218 0
    endloop
  endfacet
  facet normal 0 0 -1
    outer loop
      vertex -40.1371 -46.2654 0
      vertex -19.7485 -51.6946 0
      vertex -39.4857 -51.7218 0
    endloop
  endfacet
  facet normal 0 0 -1
    outer loop
      vertex -41.0859 -40.8517 0
      vertex -19.7485 -51.6946 0
      vertex -40.1371 -46.2654 0
    endloop
  endfacet
  facet normal 0 0 -1
    outer loop
      vertex -42.2592 -37.0223 0
      vertex -19.7485 -51.6946 0
      vertex -41.0859 -40.8517 0
    endloop
  endfacet
  facet normal 0 0 -1
    outer loop
      vertex -19.7485 -51.6946 0
      vertex -42.2592 -37.0223 0
      vertex -8.71925 -2.74602 0
    endloop
  endfacet
  facet normal 0 0 -1
    outer loop
      vertex -43.1933 -35.2712 0
      vertex -8.71925 -2.74602 0
      vertex -42.2592 -37.0223 0
    endloop
  endfacet
  facet normal 0 0 -1
    outer loop
      vertex -44.5544 -33.8215 0
      vertex -8.71925 -2.74602 0
      vertex -43.1933 -35.2712 0
    endloop
  endfacet
  facet normal 0 0 -1
    outer loop
      vertex -52.2718 -14.5965 0
      vertex -44.5544 -33.8215 0
      vertex -45.571 -33.3336 0
    endloop
  endfacet
  facet normal 0 0 -1
    outer loop
      vertex -52.2718 -14.5965 0
      vertex -45.571 -33.3336 0
      vertex -46.6697 -33.256 0
    endloop
  endfacet
  facet normal 0 0 -1
    outer loop
      vertex -52.2718 -14.5965 0
      vertex -46.6697 -33.256 0
      vertex -47.781 -33.4711 0
    endloop
  endfacet
  facet normal 0 0 -1
    outer loop
      vertex -52.2718 -14.5965 0
      vertex -47.781 -33.4711 0
      vertex -48.8357 -33.861 0
    endloop
  endfacet
  facet normal 0 0 -1
    outer loop
      vertex -44.5544 -33.8215 0
      vertex -52.2718 -14.5965 0
      vertex -8.71925 -2.74602 0
    endloop
  endfacet
  facet normal 0 0 -1
    outer loop
      vertex -18.058 38.7914 0
      vertex -56.526 42.6183 0
      vertex -53.2751 46.5413 0
    endloop
  endfacet
  facet normal 0 0 -1
    outer loop
      vertex -56.6773 -37.2205 0
      vertex -52.2718 -14.5965 0
      vertex -48.8357 -33.861 0
    endloop
  endfacet
  facet normal 0 0 -1
    outer loop
      vertex -60.6618 -38.7287 0
      vertex -52.2718 -14.5965 0
      vertex -56.6773 -37.2205 0
    endloop
  endfacet
  facet normal -0 0 -1
    outer loop
      vertex -18.058 38.7914 0
      vertex -59.5653 38.5337 0
      vertex -56.526 42.6183 0
    endloop
  endfacet
  facet normal 0 0 -1
    outer loop
      vertex -52.2718 -14.5965 0
      vertex -60.6618 -38.7287 0
      vertex -80.8567 -22.2137 0
    endloop
  endfacet
  facet normal 0 0 -1
    outer loop
      vertex -18.058 38.7914 0
      vertex -62.3938 34.3011 0
      vertex -59.5653 38.5337 0
    endloop
  endfacet
  facet normal 0 0 -1
    outer loop
      vertex -80.8567 -26.8506 0
      vertex -60.6618 -38.7287 0
      vertex -64.7644 -39.8921 0
    endloop
  endfacet
  facet normal 0 0 -1
    outer loop
      vertex -18.058 38.7914 0
      vertex -65.0124 29.9342 0
      vertex -62.3938 34.3011 0
    endloop
  endfacet
  facet normal 0 0 -1
    outer loop
      vertex -80.2097 -31.5186 0
      vertex -64.7644 -39.8921 0
      vertex -66.942 -40.293 0
    endloop
  endfacet
  facet normal 0 0 -1
    outer loop
      vertex -52.2718 -14.5965 0
      vertex -67.4217 25.4469 0
      vertex -65.0124 29.9342 0
    endloop
  endfacet
  facet normal 0 0 -1
    outer loop
      vertex -80.2097 -31.5186 0
      vertex -66.942 -40.293 0
      vertex -69.1529 -40.4851 0
    endloop
  endfacet
  facet normal 0 0 -1
    outer loop
      vertex -52.2718 -14.5965 0
      vertex -69.6228 20.8527 0
      vertex -67.4217 25.4469 0
    endloop
  endfacet
  facet normal 0 0 -1
    outer loop
      vertex -79.5343 -33.7697 0
      vertex -69.1529 -40.4851 0
      vertex -71.3596 -40.3878 0
    endloop
  endfacet
  facet normal 0 0 -1
    outer loop
      vertex -52.2718 -14.5965 0
      vertex -71.6163 16.1655 0
      vertex -69.6228 20.8527 0
    endloop
  endfacet
  facet normal 0 0 -1
    outer loop
      vertex -52.2718 -14.5965 0
      vertex -73.4032 11.399 0
      vertex -71.6163 16.1655 0
    endloop
  endfacet
  facet normal 0 0 -1
    outer loop
      vertex -78.5086 -35.8902 0
      vertex -71.3596 -40.3878 0
      vertex -73.5245 -39.9203 0
    endloop
  endfacet
  facet normal 0 0 -1
    outer loop
      vertex -78.5086 -35.8902 0
      vertex -73.5245 -39.9203 0
      vertex -75.0288 -39.2744 0
    endloop
  endfacet
  facet normal 0 0 -1
    outer loop
      vertex -52.2718 -14.5965 0
      vertex -75.6966 4.2672 0
      vertex -73.4032 11.399 0
    endloop
  endfacet
  facet normal 0 0 -1
    outer loop
      vertex -78.5086 -35.8902 0
      vertex -75.0288 -39.2744 0
      vertex -76.3891 -38.3656 0
    endloop
  endfacet
  facet normal 0 0 -1
    outer loop
      vertex -78.5086 -35.8902 0
      vertex -76.3891 -38.3656 0
      vertex -77.5631 -37.2267 0
    endloop
  endfacet
  facet normal 0 0 -1
    outer loop
      vertex -52.2718 -14.5965 0
      vertex -77.645 -2.96615 0
      vertex -75.6966 4.2672 0
    endloop
  endfacet
  facet normal 0 0 -1
    outer loop
      vertex -71.3596 -40.3878 0
      vertex -78.5086 -35.8902 0
      vertex -79.5343 -33.7697 0
    endloop
  endfacet
  facet normal 0 0 -1
    outer loop
      vertex -69.1529 -40.4851 0
      vertex -79.5343 -33.7697 0
      vertex -80.2097 -31.5186 0
    endloop
  endfacet
  facet normal 0 0 -1
    outer loop
      vertex -52.2718 -14.5965 0
      vertex -79.6858 -12.518 0
      vertex -77.645 -2.96615 0
    endloop
  endfacet
  facet normal 0 0 -1
    outer loop
      vertex -64.7644 -39.8921 0
      vertex -80.2097 -31.5186 0
      vertex -80.8567 -26.8506 0
    endloop
  endfacet
  facet normal -0 0 -1
    outer loop
      vertex -52.2718 -14.5965 0
      vertex -80.4076 -17.3481 0
      vertex -79.6858 -12.518 0
    endloop
  endfacet
  facet normal 0 0 -1
    outer loop
      vertex -60.6618 -38.7287 0
      vertex -80.8567 -26.8506 0
      vertex -80.8567 -22.2137 0
    endloop
  endfacet
  facet normal 0 0 -1
    outer loop
      vertex -52.2718 -14.5965 0
      vertex -80.8567 -22.2137 0
      vertex -80.4076 -17.3481 0
    endloop
  endfacet
  facet normal 0 0 1
    outer loop
      vertex -18.8242 -84.8078 3
      vertex -34.3288 -77.2842 3
      vertex -23.0322 -84.8078 3
    endloop
  endfacet
  facet normal -0 -0 1
    outer loop
      vertex -33.0877 -79.0984 3
      vertex -23.0322 -84.8078 3
      vertex -34.3288 -77.2842 3
    endloop
  endfacet
  facet normal -0 0 1
    outer loop
      vertex -42.2592 -37.0223 3
      vertex -19.7485 -51.6946 3
      vertex -8.71925 -2.74602 3
    endloop
  endfacet
  facet normal 0 -0 1
    outer loop
      vertex -38.4782 -62.6703 3
      vertex -19.7485 -51.6946 3
      vertex -39.4857 -51.7218 3
    endloop
  endfacet
  facet normal 0 -0 1
    outer loop
      vertex -36.9482 -71.2918 3
      vertex -19.7485 -51.6946 3
      vertex -37.9387 -67.0132 3
    endloop
  endfacet
  facet normal 0 -0 1
    outer loop
      vertex -35.375 -75.3667 3
      vertex -19.7485 -51.6946 3
      vertex -36.9482 -71.2918 3
    endloop
  endfacet
  facet normal 0 -0 1
    outer loop
      vertex -34.3288 -77.2842 3
      vertex -19.7485 -51.6946 3
      vertex -35.375 -75.3667 3
    endloop
  endfacet
  facet normal 0 0 1
    outer loop
      vertex -23.0322 -84.8078 3
      vertex -33.0877 -79.0984 3
      vertex -25.938 -84.1899 3
    endloop
  endfacet
  facet normal 0 0 1
    outer loop
      vertex -28.6494 -82.9913 3
      vertex -33.0877 -79.0984 3
      vertex -31.0661 -81.2736 3
    endloop
  endfacet
  facet normal 0 0 1
    outer loop
      vertex -25.938 -84.1899 3
      vertex -33.0877 -79.0984 3
      vertex -28.6494 -82.9913 3
    endloop
  endfacet
  facet normal 0 -0 1
    outer loop
      vertex -37.9387 -67.0132 3
      vertex -19.7485 -51.6946 3
      vertex -38.4782 -62.6703 3
    endloop
  endfacet
  facet normal 0 0 1
    outer loop
      vertex -19.7485 -51.6946 3
      vertex -40.1371 -46.2654 3
      vertex -39.4857 -51.7218 3
    endloop
  endfacet
  facet normal 0 0 1
    outer loop
      vertex -19.7485 -51.6946 3
      vertex -41.0859 -40.8517 3
      vertex -40.1371 -46.2654 3
    endloop
  endfacet
  facet normal 0 0 1
    outer loop
      vertex -19.7485 -51.6946 3
      vertex -42.2592 -37.0223 3
      vertex -41.0859 -40.8517 3
    endloop
  endfacet
  facet normal 0 0 1
    outer loop
      vertex -8.71925 -2.74602 3
      vertex -43.1933 -35.2712 3
      vertex -42.2592 -37.0223 3
    endloop
  endfacet
  facet normal 0 0 1
    outer loop
      vertex -8.71925 -2.74602 3
      vertex -44.5544 -33.8215 3
      vertex -43.1933 -35.2712 3
    endloop
  endfacet
  facet normal -0 0 1
    outer loop
      vertex -52.2718 -14.5965 3
      vertex -44.5544 -33.8215 3
      vertex -8.71925 -2.74602 3
    endloop
  endfacet
  facet normal 0 0 1
    outer loop
      vertex -44.5544 -33.8215 3
      vertex -52.2718 -14.5965 3
      vertex -45.571 -33.3336 3
    endloop
  endfacet
  facet normal 0 0 1
    outer loop
      vertex -45.571 -33.3336 3
      vertex -52.2718 -14.5965 3
      vertex -46.6697 -33.256 3
    endloop
  endfacet
  facet normal 0 0 1
    outer loop
      vertex -46.6697 -33.256 3
      vertex -52.2718 -14.5965 3
      vertex -47.781 -33.4711 3
    endloop
  endfacet
  facet normal 0 0 1
    outer loop
      vertex -47.781 -33.4711 3
      vertex -52.2718 -14.5965 3
      vertex -48.8357 -33.861 3
    endloop
  endfacet
  facet normal 0 0 1
    outer loop
      vertex -59.5653 38.5337 3
      vertex -18.058 38.7914 3
      vertex -56.526 42.6183 3
    endloop
  endfacet
  facet normal 0 0 1
    outer loop
      vertex -52.2718 -14.5965 3
      vertex -56.6773 -37.2205 3
      vertex -48.8357 -33.861 3
    endloop
  endfacet
  facet normal 0 0 1
    outer loop
      vertex -62.3938 34.3011 3
      vertex -18.058 38.7914 3
      vertex -59.5653 38.5337 3
    endloop
  endfacet
  facet normal 0 0 1
    outer loop
      vertex -65.0124 29.9342 3
      vertex -18.058 38.7914 3
      vertex -62.3938 34.3011 3
    endloop
  endfacet
  facet normal 0 0 1
    outer loop
      vertex -18.058 38.7914 3
      vertex -65.0124 29.9342 3
      vertex -52.2718 -14.5965 3
    endloop
  endfacet
  facet normal -0 0 1
    outer loop
      vertex -67.4217 25.4469 3
      vertex -52.2718 -14.5965 3
      vertex -65.0124 29.9342 3
    endloop
  endfacet
  facet normal -0 0 1
    outer loop
      vertex -69.6228 20.8527 3
      vertex -52.2718 -14.5965 3
      vertex -67.4217 25.4469 3
    endloop
  endfacet
  facet normal -0 0 1
    outer loop
      vertex -71.6163 16.1655 3
      vertex -52.2718 -14.5965 3
      vertex -69.6228 20.8527 3
    endloop
  endfacet
  facet normal -0 0 1
    outer loop
      vertex -73.4032 11.399 3
      vertex -52.2718 -14.5965 3
      vertex -71.6163 16.1655 3
    endloop
  endfacet
  facet normal -0 0 1
    outer loop
      vertex -75.6966 4.2672 3
      vertex -52.2718 -14.5965 3
      vertex -73.4032 11.399 3
    endloop
  endfacet
  facet normal -0 0 1
    outer loop
      vertex -77.645 -2.96615 3
      vertex -52.2718 -14.5965 3
      vertex -75.6966 4.2672 3
    endloop
  endfacet
  facet normal -0 0 1
    outer loop
      vertex -79.6858 -12.518 3
      vertex -52.2718 -14.5965 3
      vertex -77.645 -2.96615 3
    endloop
  endfacet
  facet normal 0 0 1
    outer loop
      vertex -80.4076 -17.3481 3
      vertex -52.2718 -14.5965 3
      vertex -79.6858 -12.518 3
    endloop
  endfacet
  facet normal 0 0 1
    outer loop
      vertex -80.8567 -22.2137 3
      vertex -52.2718 -14.5965 3
      vertex -80.4076 -17.3481 3
    endloop
  endfacet
  facet normal 0 -0 1
    outer loop
      vertex -60.6618 -38.7287 3
      vertex -52.2718 -14.5965 3
      vertex -80.8567 -22.2137 3
    endloop
  endfacet
  facet normal 0 0 1
    outer loop
      vertex -52.2718 -14.5965 3
      vertex -60.6618 -38.7287 3
      vertex -56.6773 -37.2205 3
    endloop
  endfacet
  facet normal -0 0 1
    outer loop
      vertex -80.8567 -26.8506 3
      vertex -60.6618 -38.7287 3
      vertex -80.8567 -22.2137 3
    endloop
  endfacet
  facet normal 0 0 1
    outer loop
      vertex -60.6618 -38.7287 3
      vertex -80.8567 -26.8506 3
      vertex -64.7644 -39.8921 3
    endloop
  endfacet
  facet normal -0 -0 1
    outer loop
      vertex -80.2097 -31.5186 3
      vertex -64.7644 -39.8921 3
      vertex -80.8567 -26.8506 3
    endloop
  endfacet
  facet normal 0 0 1
    outer loop
      vertex -64.7644 -39.8921 3
      vertex -80.2097 -31.5186 3
      vertex -66.942 -40.293 3
    endloop
  endfacet
  facet normal 0 0 1
    outer loop
      vertex -66.942 -40.293 3
      vertex -80.2097 -31.5186 3
      vertex -69.1529 -40.4851 3
    endloop
  endfacet
  facet normal -0 -0 1
    outer loop
      vertex -79.5343 -33.7697 3
      vertex -69.1529 -40.4851 3
      vertex -80.2097 -31.5186 3
    endloop
  endfacet
  facet normal 0 0 1
    outer loop
      vertex -69.1529 -40.4851 3
      vertex -79.5343 -33.7697 3
      vertex -71.3596 -40.3878 3
    endloop
  endfacet
  facet normal -0 -0 1
    outer loop
      vertex -78.5086 -35.8902 3
      vertex -71.3596 -40.3878 3
      vertex -79.5343 -33.7697 3
    endloop
  endfacet
  facet normal 0 0 1
    outer loop
      vertex -71.3596 -40.3878 3
      vertex -78.5086 -35.8902 3
      vertex -73.5245 -39.9203 3
    endloop
  endfacet
  facet normal 0 0 1
    outer loop
      vertex -73.5245 -39.9203 3
      vertex -78.5086 -35.8902 3
      vertex -75.0288 -39.2744 3
    endloop
  endfacet
  facet normal 0 0 1
    outer loop
      vertex -75.0288 -39.2744 3
      vertex -78.5086 -35.8902 3
      vertex -76.3891 -38.3656 3
    endloop
  endfacet
  facet normal 0 0 1
    outer loop
      vertex -76.3891 -38.3656 3
      vertex -78.5086 -35.8902 3
      vertex -77.5631 -37.2267 3
    endloop
  endfacet
  facet normal -0 0 1
    outer loop
      vertex 52.2718 51.6946 3
      vertex 80.8567 47.3625 3
      vertex 80.3451 56.2596 3
    endloop
  endfacet
  facet normal 0 0 1
    outer loop
      vertex 80.8567 47.3625 3
      vertex 52.2718 51.6946 3
      vertex 80.8567 43.0361 3
    endloop
  endfacet
  facet normal 0 0 1
    outer loop
      vertex 52.2718 51.6946 3
      vertex 80.3451 56.2596 3
      vertex 79.2342 65.0995 3
    endloop
  endfacet
  facet normal 0 0 1
    outer loop
      vertex 80.8567 43.0361 3
      vertex 52.2718 51.6946 3
      vertex 80.2749 33.6273 3
    endloop
  endfacet
  facet normal 0 0 1
    outer loop
      vertex 52.2718 51.6946 3
      vertex 79.2342 65.0995 3
      vertex 77.5566 73.8516 3
    endloop
  endfacet
  facet normal -0 0 1
    outer loop
      vertex 49.0605 48.2085 3
      vertex 80.2749 33.6273 3
      vertex 52.2718 51.6946 3
    endloop
  endfacet
  facet normal 0 0 1
    outer loop
      vertex 69.2176 83.4104 3
      vertex 77.5566 73.8516 3
      vertex 75.3449 82.4851 3
    endloop
  endfacet
  facet normal -0 0 1
    outer loop
      vertex 45.7835 44.7774 3
      vertex 80.2749 33.6273 3
      vertex 49.0605 48.2085 3
    endloop
  endfacet
  facet normal 0 0 1
    outer loop
      vertex 80.2749 33.6273 3
      vertex 45.7835 44.7774 3
      vertex 78.9418 24.2962 3
    endloop
  endfacet
  facet normal 0 0 1
    outer loop
      vertex 63.0569 84.0708 3
      vertex 77.5566 73.8516 3
      vertex 69.2176 83.4104 3
    endloop
  endfacet
  facet normal 0 0 1
    outer loop
      vertex 78.9418 24.2962 3
      vertex 45.7835 44.7774 3
      vertex 76.8466 15.1084 3
    endloop
  endfacet
  facet normal 0 0 1
    outer loop
      vertex 76.8466 15.1084 3
      vertex 45.7835 44.7774 3
      vertex 73.9789 6.12986 3
    endloop
  endfacet
  facet normal 0 0 1
    outer loop
      vertex 77.5566 73.8516 3
      vertex 63.0569 84.0708 3
      vertex 52.2718 51.6946 3
    endloop
  endfacet
  facet normal 0 0 1
    outer loop
      vertex 73.9789 6.12986 3
      vertex 45.7835 44.7774 3
      vertex 71.1345 -0.946879 3
    endloop
  endfacet
  facet normal 0 0 1
    outer loop
      vertex 71.1345 -0.946879 3
      vertex 45.7835 44.7774 3
      vertex 67.8471 -7.81425 3
    endloop
  endfacet
  facet normal -0 0 1
    outer loop
      vertex 2.91958 -0.23142 3
      vertex 67.8471 -7.81425 3
      vertex 45.7835 44.7774 3
    endloop
  endfacet
  facet normal 0 0 1
    outer loop
      vertex 50.6843 84.8078 3
      vertex 52.2718 51.6946 3
      vertex 63.0569 84.0708 3
    endloop
  endfacet
  facet normal -0 0 1
    outer loop
      vertex 40.5215 84.8078 3
      vertex 52.2718 51.6946 3
      vertex 50.6843 84.8078 3
    endloop
  endfacet
  facet normal -0 0 1
    outer loop
      vertex 31.4648 84.3249 3
      vertex 52.2718 51.6946 3
      vertex 40.5215 84.8078 3
    endloop
  endfacet
  facet normal -0 0 1
    outer loop
      vertex 22.4391 83.4214 3
      vertex 52.2718 51.6946 3
      vertex 31.4648 84.3249 3
    endloop
  endfacet
  facet normal -0 0 1
    outer loop
      vertex 13.4764 82.0447 3
      vertex 52.2718 51.6946 3
      vertex 22.4391 83.4214 3
    endloop
  endfacet
  facet normal 0 0 1
    outer loop
      vertex -18.058 38.7914 3
      vertex 13.4764 82.0447 3
      vertex 4.60868 80.1426 3
    endloop
  endfacet
  facet normal 0 0 1
    outer loop
      vertex 13.4764 82.0447 3
      vertex -18.058 38.7914 3
      vertex 52.2718 51.6946 3
    endloop
  endfacet
  facet normal 0 0 1
    outer loop
      vertex -18.058 38.7914 3
      vertex 4.60868 80.1426 3
      vertex -3.81763 77.795 3
    endloop
  endfacet
  facet normal 0 0 1
    outer loop
      vertex -18.058 38.7914 3
      vertex -3.81763 77.795 3
      vertex -12.0738 74.8997 3
    endloop
  endfacet
  facet normal 0 0 1
    outer loop
      vertex 52.2718 51.6946 3
      vertex -18.058 38.7914 3
      vertex 0.0465641 7.76393 3
    endloop
  endfacet
  facet normal 0 -0 1
    outer loop
      vertex -18.058 38.7914 3
      vertex -12.0738 74.8997 3
      vertex -20.1019 71.4296 3
    endloop
  endfacet
  facet normal 0 -0 1
    outer loop
      vertex 29.917 -26.9494 3
      vertex 67.8471 -7.81425 3
      vertex 2.91958 -0.23142 3
    endloop
  endfacet
  facet normal 0 0 1
    outer loop
      vertex 64.1495 -14.4671 3
      vertex 29.917 -26.9494 3
      vertex 60.0742 -20.9003 3
    endloop
  endfacet
  facet normal 0 0 1
    outer loop
      vertex 60.0742 -20.9003 3
      vertex 29.917 -26.9494 3
      vertex 55.654 -27.1088 3
    endloop
  endfacet
  facet normal 0 -0 1
    outer loop
      vertex 32.4372 -29.5346 3
      vertex 55.654 -27.1088 3
      vertex 29.917 -26.9494 3
    endloop
  endfacet
  facet normal 0 0 1
    outer loop
      vertex 50.9217 -33.0873 3
      vertex 32.4372 -29.5346 3
      vertex 45.9099 -38.8309 3
    endloop
  endfacet
  facet normal 0 0 1
    outer loop
      vertex 45.9099 -38.8309 3
      vertex 32.4372 -29.5346 3
      vertex 40.6513 -44.3343 3
    endloop
  endfacet
  facet normal 0 0 1
    outer loop
      vertex 40.6513 -44.3343 3
      vertex 32.4372 -29.5346 3
      vertex 36.0848 -48.7943 3
    endloop
  endfacet
  facet normal 0 0 1
    outer loop
      vertex 55.654 -27.1088 3
      vertex 32.4372 -29.5346 3
      vertex 50.9217 -33.0873 3
    endloop
  endfacet
  facet normal 0 0 1
    outer loop
      vertex 67.8471 -7.81425 3
      vertex 29.917 -26.9494 3
      vertex 64.1495 -14.4671 3
    endloop
  endfacet
  facet normal 0 0 1
    outer loop
      vertex 32.4372 -29.5346 3
      vertex 31.3782 -53.1 3
      vertex 36.0848 -48.7943 3
    endloop
  endfacet
  facet normal 0 0 1
    outer loop
      vertex 32.4372 -29.5346 3
      vertex 21.6038 -61.298 3
      vertex 31.3782 -53.1 3
    endloop
  endfacet
  facet normal -0 0 1
    outer loop
      vertex -19.7485 -51.6946 3
      vertex 21.6038 -61.298 3
      vertex 32.4372 -29.5346 3
    endloop
  endfacet
  facet normal 0 0 1
    outer loop
      vertex 21.6038 -61.298 3
      vertex -19.7485 -51.6946 3
      vertex 11.4457 -69.0271 3
    endloop
  endfacet
  facet normal 0 0 1
    outer loop
      vertex -19.7485 -51.6946 3
      vertex 32.4372 -29.5346 3
      vertex -1.42099 -6.20889 3
    endloop
  endfacet
  facet normal 0 0 1
    outer loop
      vertex 11.4457 -69.0271 3
      vertex -19.7485 -51.6946 3
      vertex 1.02164 -76.3863 3
    endloop
  endfacet
  facet normal 0 0 1
    outer loop
      vertex 1.02164 -76.3863 3
      vertex -19.7485 -51.6946 3
      vertex -3.60327 -79.236 3
    endloop
  endfacet
  facet normal 0 0 1
    outer loop
      vertex -3.60327 -79.236 3
      vertex -19.7485 -51.6946 3
      vertex -8.44197 -81.7411 3
    endloop
  endfacet
  facet normal 0 0 1
    outer loop
      vertex -8.44197 -81.7411 3
      vertex -19.7485 -51.6946 3
      vertex -13.5103 -83.6741 3
    endloop
  endfacet
  facet normal 0 0 1
    outer loop
      vertex -13.5103 -83.6741 3
      vertex -19.7485 -51.6946 3
      vertex -16.1356 -84.355 3
    endloop
  endfacet
  facet normal 0 0 1
    outer loop
      vertex -16.1356 -84.355 3
      vertex -19.7485 -51.6946 3
      vertex -18.8242 -84.8078 3
    endloop
  endfacet
  facet normal -0 0 1
    outer loop
      vertex -34.3288 -77.2842 3
      vertex -18.8242 -84.8078 3
      vertex -19.7485 -51.6946 3
    endloop
  endfacet
  facet normal -0 0 1
    outer loop
      vertex -27.844 67.358 3
      vertex -18.058 38.7914 3
      vertex -20.1019 71.4296 3
    endloop
  endfacet
  facet normal -0 0 1
    outer loop
      vertex -34.8224 62.9528 3
      vertex -18.058 38.7914 3
      vertex -27.844 67.358 3
    endloop
  endfacet
  facet normal -0 0 1
    outer loop
      vertex -41.4242 58.0016 3
      vertex -18.058 38.7914 3
      vertex -34.8224 62.9528 3
    endloop
  endfacet
  facet normal -0 0 1
    outer loop
      vertex -47.5937 52.5244 3
      vertex -18.058 38.7914 3
      vertex -41.4242 58.0016 3
    endloop
  endfacet
  facet normal -0 0 1
    outer loop
      vertex -53.2751 46.5413 3
      vertex -18.058 38.7914 3
      vertex -47.5937 52.5244 3
    endloop
  endfacet
  facet normal -0 0 1
    outer loop
      vertex -56.526 42.6183 3
      vertex -18.058 38.7914 3
      vertex -53.2751 46.5413 3
    endloop
  endfacet
  facet normal 0 0 1
    outer loop
      vertex -18.058 38.7914 3
      vertex -52.2718 -14.5965 3
      vertex -8.91681 4.33493 3
    endloop
  endfacet
  facet normal 0.106593 0.994303 -0
    outer loop
      vertex 69.2176 83.4104 0
      vertex 63.0569 84.0708 3
      vertex 69.2176 83.4104 3
    endloop
  endfacet
  facet normal 0.106593 0.994303 0
    outer loop
      vertex 63.0569 84.0708 3
      vertex 69.2176 83.4104 0
      vertex 63.0569 84.0708 0
    endloop
  endfacet
  facet normal 0.149318 0.988789 -0
    outer loop
      vertex 75.3449 82.4851 0
      vertex 69.2176 83.4104 3
      vertex 75.3449 82.4851 3
    endloop
  endfacet
  facet normal 0.149318 0.988789 0
    outer loop
      vertex 69.2176 83.4104 3
      vertex 75.3449 82.4851 0
      vertex 69.2176 83.4104 0
    endloop
  endfacet
  facet normal 0.968716 0.248171 0
    outer loop
      vertex 77.5566 73.8516 3
      vertex 75.3449 82.4851 0
      vertex 75.3449 82.4851 3
    endloop
  endfacet
  facet normal 0.968716 0.248171 0
    outer loop
      vertex 75.3449 82.4851 0
      vertex 77.5566 73.8516 3
      vertex 77.5566 73.8516 0
    endloop
  endfacet
  facet normal 0.982121 0.188252 0
    outer loop
      vertex 79.2342 65.0995 3
      vertex 77.5566 73.8516 0
      vertex 77.5566 73.8516 3
    endloop
  endfacet
  facet normal 0.982121 0.188252 0
    outer loop
      vertex 77.5566 73.8516 0
      vertex 79.2342 65.0995 3
      vertex 79.2342 65.0995 0
    endloop
  endfacet
  facet normal 0.992197 0.124683 0
    outer loop
      vertex 80.3451 56.2596 3
      vertex 79.2342 65.0995 0
      vertex 79.2342 65.0995 3
    endloop
  endfacet
  facet normal 0.992197 0.124683 0
    outer loop
      vertex 79.2342 65.0995 0
      vertex 80.3451 56.2596 3
      vertex 80.3451 56.2596 0
    endloop
  endfacet
  facet normal 0.998351 0.0574044 0
    outer loop
      vertex 80.8567 47.3625 3
      vertex 80.3451 56.2596 0
      vertex 80.3451 56.2596 3
    endloop
  endfacet
  facet normal 0.998351 0.0574044 0
    outer loop
      vertex 80.3451 56.2596 0
      vertex 80.8567 47.3625 3
      vertex 80.8567 47.3625 0
    endloop
  endfacet
  facet normal 1 -0 0
    outer loop
      vertex 80.8567 43.0361 3
      vertex 80.8567 47.3625 0
      vertex 80.8567 47.3625 3
    endloop
  endfacet
  facet normal 1 0 0
    outer loop
      vertex 80.8567 47.3625 0
      vertex 80.8567 43.0361 3
      vertex 80.8567 43.0361 0
    endloop
  endfacet
  facet normal 0.998094 -0.0617114 0
    outer loop
      vertex 80.2749 33.6273 3
      vertex 80.8567 43.0361 0
      vertex 80.8567 43.0361 3
    endloop
  endfacet
  facet normal 0.998094 -0.0617114 0
    outer loop
      vertex 80.8567 43.0361 0
      vertex 80.2749 33.6273 3
      vertex 80.2749 33.6273 0
    endloop
  endfacet
  facet normal 0.989948 -0.141434 0
    outer loop
      vertex 78.9418 24.2962 3
      vertex 80.2749 33.6273 0
      vertex 80.2749 33.6273 3
    endloop
  endfacet
  facet normal 0.989948 -0.141434 0
    outer loop
      vertex 80.2749 33.6273 0
      vertex 78.9418 24.2962 3
      vertex 78.9418 24.2962 0
    endloop
  endfacet
  facet normal 0.974972 -0.222329 0
    outer loop
      vertex 76.8466 15.1084 3
      vertex 78.9418 24.2962 0
      vertex 78.9418 24.2962 3
    endloop
  endfacet
  facet normal 0.974972 -0.222329 0
    outer loop
      vertex 78.9418 24.2962 0
      vertex 76.8466 15.1084 3
      vertex 76.8466 15.1084 0
    endloop
  endfacet
  facet normal 0.95259 -0.304257 0
    outer loop
      vertex 73.9789 6.12986 3
      vertex 76.8466 15.1084 0
      vertex 76.8466 15.1084 3
    endloop
  endfacet
  facet normal 0.95259 -0.304257 0
    outer loop
      vertex 76.8466 15.1084 0
      vertex 73.9789 6.12986 3
      vertex 73.9789 6.12986 0
    endloop
  endfacet
  facet normal 0.927857 -0.372935 0
    outer loop
      vertex 71.1345 -0.946879 3
      vertex 73.9789 6.12986 0
      vertex 73.9789 6.12986 3
    endloop
  endfacet
  facet normal 0.927857 -0.372935 0
    outer loop
      vertex 73.9789 6.12986 0
      vertex 71.1345 -0.946879 3
      vertex 71.1345 -0.946879 0
    endloop
  endfacet
  facet normal 0.901981 -0.431776 0
    outer loop
      vertex 67.8471 -7.81425 3
      vertex 71.1345 -0.946879 0
      vertex 71.1345 -0.946879 3
    endloop
  endfacet
  facet normal 0.901981 -0.431776 0
    outer loop
      vertex 71.1345 -0.946879 0
      vertex 67.8471 -7.81425 3
      vertex 67.8471 -7.81425 0
    endloop
  endfacet
  facet normal 0.874065 -0.485809 0
    outer loop
      vertex 64.1495 -14.4671 3
      vertex 67.8471 -7.81425 0
      vertex 67.8471 -7.81425 3
    endloop
  endfacet
  facet normal 0.874065 -0.485809 0
    outer loop
      vertex 67.8471 -7.81425 0
      vertex 64.1495 -14.4671 3
      vertex 64.1495 -14.4671 0
    endloop
  endfacet
  facet normal 0.844765 -0.535138 0
    outer loop
      vertex 60.0742 -20.9003 3
      vertex 64.1495 -14.4671 0
      vertex 64.1495 -14.4671 3
    endloop
  endfacet
  facet normal 0.844765 -0.535138 0
    outer loop
      vertex 64.1495 -14.4671 0
      vertex 60.0742 -20.9003 3
      vertex 60.0742 -20.9003 0
    endloop
  endfacet
  facet normal 0.814629 -0.579983 0
    outer loop
      vertex 55.654 -27.1088 3
      vertex 60.0742 -20.9003 0
      vertex 60.0742 -20.9003 3
    endloop
  endfacet
  facet normal 0.814629 -0.579983 0
    outer loop
      vertex 60.0742 -20.9003 0
      vertex 55.654 -27.1088 3
      vertex 55.654 -27.1088 0
    endloop
  endfacet
  facet normal 0.784089 -0.620648 0
    outer loop
      vertex 50.9217 -33.0873 3
      vertex 55.654 -27.1088 0
      vertex 55.654 -27.1088 3
    endloop
  endfacet
  facet normal 0.784089 -0.620648 0
    outer loop
      vertex 55.654 -27.1088 0
      vertex 50.9217 -33.0873 3
      vertex 50.9217 -33.0873 0
    endloop
  endfacet
  facet normal 0.753473 -0.657479 0
    outer loop
      vertex 45.9099 -38.8309 3
      vertex 50.9217 -33.0873 0
      vertex 50.9217 -33.0873 3
    endloop
  endfacet
  facet normal 0.753473 -0.657479 0
    outer loop
      vertex 50.9217 -33.0873 0
      vertex 45.9099 -38.8309 3
      vertex 45.9099 -38.8309 0
    endloop
  endfacet
  facet normal 0.723007 -0.690841 0
    outer loop
      vertex 40.6513 -44.3343 3
      vertex 45.9099 -38.8309 0
      vertex 45.9099 -38.8309 3
    endloop
  endfacet
  facet normal 0.723007 -0.690841 0
    outer loop
      vertex 45.9099 -38.8309 0
      vertex 40.6513 -44.3343 3
      vertex 40.6513 -44.3343 0
    endloop
  endfacet
  facet normal 0.698717 -0.715399 0
    outer loop
      vertex 36.0848 -48.7943 0
      vertex 40.6513 -44.3343 3
      vertex 36.0848 -48.7943 3
    endloop
  endfacet
  facet normal 0.698717 -0.715399 0
    outer loop
      vertex 40.6513 -44.3343 3
      vertex 36.0848 -48.7943 0
      vertex 40.6513 -44.3343 0
    endloop
  endfacet
  facet normal 0.674988 -0.737829 0
    outer loop
      vertex 31.3782 -53.1 0
      vertex 36.0848 -48.7943 3
      vertex 31.3782 -53.1 3
    endloop
  endfacet
  facet normal 0.674988 -0.737829 0
    outer loop
      vertex 36.0848 -48.7943 3
      vertex 31.3782 -53.1 0
      vertex 36.0848 -48.7943 0
    endloop
  endfacet
  facet normal 0.642613 -0.766191 0
    outer loop
      vertex 21.6038 -61.298 0
      vertex 31.3782 -53.1 3
      vertex 21.6038 -61.298 3
    endloop
  endfacet
  facet normal 0.642613 -0.766191 0
    outer loop
      vertex 31.3782 -53.1 3
      vertex 21.6038 -61.298 0
      vertex 31.3782 -53.1 0
    endloop
  endfacet
  facet normal 0.605527 -0.795825 0
    outer loop
      vertex 11.4457 -69.0271 0
      vertex 21.6038 -61.298 3
      vertex 11.4457 -69.0271 3
    endloop
  endfacet
  facet normal 0.605527 -0.795825 0
    outer loop
      vertex 21.6038 -61.298 3
      vertex 11.4457 -69.0271 0
      vertex 21.6038 -61.298 0
    endloop
  endfacet
  facet normal 0.57674 -0.816928 0
    outer loop
      vertex 1.02164 -76.3863 0
      vertex 11.4457 -69.0271 3
      vertex 1.02164 -76.3863 3
    endloop
  endfacet
  facet normal 0.57674 -0.816928 0
    outer loop
      vertex 11.4457 -69.0271 3
      vertex 1.02164 -76.3863 0
      vertex 11.4457 -69.0271 0
    endloop
  endfacet
  facet normal 0.52459 -0.851355 0
    outer loop
      vertex -3.60327 -79.236 0
      vertex 1.02164 -76.3863 3
      vertex -3.60327 -79.236 3
    endloop
  endfacet
  facet normal 0.52459 -0.851355 0
    outer loop
      vertex 1.02164 -76.3863 3
      vertex -3.60327 -79.236 0
      vertex 1.02164 -76.3863 0
    endloop
  endfacet
  facet normal 0.45975 -0.888048 0
    outer loop
      vertex -8.44197 -81.7411 0
      vertex -3.60327 -79.236 3
      vertex -8.44197 -81.7411 3
    endloop
  endfacet
  facet normal 0.45975 -0.888048 0
    outer loop
      vertex -3.60327 -79.236 3
      vertex -8.44197 -81.7411 0
      vertex -3.60327 -79.236 0
    endloop
  endfacet
  facet normal 0.356349 -0.934353 0
    outer loop
      vertex -13.5103 -83.6741 0
      vertex -8.44197 -81.7411 3
      vertex -13.5103 -83.6741 3
    endloop
  endfacet
  facet normal 0.356349 -0.934353 0
    outer loop
      vertex -8.44197 -81.7411 3
      vertex -13.5103 -83.6741 0
      vertex -8.44197 -81.7411 0
    endloop
  endfacet
  facet normal 0.251079 -0.967967 0
    outer loop
      vertex -16.1356 -84.355 0
      vertex -13.5103 -83.6741 3
      vertex -16.1356 -84.355 3
    endloop
  endfacet
  facet normal 0.251079 -0.967967 0
    outer loop
      vertex -13.5103 -83.6741 3
      vertex -16.1356 -84.355 0
      vertex -13.5103 -83.6741 0
    endloop
  endfacet
  facet normal 0.166051 -0.986117 0
    outer loop
      vertex -18.8242 -84.8078 0
      vertex -16.1356 -84.355 3
      vertex -18.8242 -84.8078 3
    endloop
  endfacet
  facet normal 0.166051 -0.986117 0
    outer loop
      vertex -16.1356 -84.355 3
      vertex -18.8242 -84.8078 0
      vertex -16.1356 -84.355 0
    endloop
  endfacet
  facet normal 0 -1 0
    outer loop
      vertex -23.0322 -84.8078 0
      vertex -18.8242 -84.8078 3
      vertex -23.0322 -84.8078 3
    endloop
  endfacet
  facet normal 0 -1 -0
    outer loop
      vertex -18.8242 -84.8078 3
      vertex -23.0322 -84.8078 0
      vertex -18.8242 -84.8078 0
    endloop
  endfacet
  facet normal -0.207972 -0.978135 0
    outer loop
      vertex -25.938 -84.1899 0
      vertex -23.0322 -84.8078 3
      vertex -25.938 -84.1899 3
    endloop
  endfacet
  facet normal -0.207972 -0.978135 -0
    outer loop
      vertex -23.0322 -84.8078 3
      vertex -25.938 -84.1899 0
      vertex -23.0322 -84.8078 0
    endloop
  endfacet
  facet normal -0.404318 -0.914619 0
    outer loop
      vertex -28.6494 -82.9913 0
      vertex -25.938 -84.1899 3
      vertex -28.6494 -82.9913 3
    endloop
  endfacet
  facet normal -0.404318 -0.914619 -0
    outer loop
      vertex -25.938 -84.1899 3
      vertex -28.6494 -82.9913 0
      vertex -25.938 -84.1899 0
    endloop
  endfacet
  facet normal -0.579345 -0.815083 0
    outer loop
      vertex -31.0661 -81.2736 0
      vertex -28.6494 -82.9913 3
      vertex -31.0661 -81.2736 3
    endloop
  endfacet
  facet normal -0.579345 -0.815083 -0
    outer loop
      vertex -28.6494 -82.9913 3
      vertex -31.0661 -81.2736 0
      vertex -28.6494 -82.9913 0
    endloop
  endfacet
  facet normal -0.732488 -0.68078 0
    outer loop
      vertex -31.0661 -81.2736 0
      vertex -33.0877 -79.0984 3
      vertex -33.0877 -79.0984 0
    endloop
  endfacet
  facet normal -0.732488 -0.68078 0
    outer loop
      vertex -33.0877 -79.0984 3
      vertex -31.0661 -81.2736 0
      vertex -31.0661 -81.2736 3
    endloop
  endfacet
  facet normal -0.825352 -0.564618 0
    outer loop
      vertex -33.0877 -79.0984 0
      vertex -34.3288 -77.2842 3
      vertex -34.3288 -77.2842 0
    endloop
  endfacet
  facet normal -0.825352 -0.564618 0
    outer loop
      vertex -34.3288 -77.2842 3
      vertex -33.0877 -79.0984 0
      vertex -33.0877 -79.0984 3
    endloop
  endfacet
  facet normal -0.877844 -0.478946 0
    outer loop
      vertex -34.3288 -77.2842 0
      vertex -35.375 -75.3667 3
      vertex -35.375 -75.3667 0
    endloop
  endfacet
  facet normal -0.877844 -0.478946 0
    outer loop
      vertex -35.375 -75.3667 3
      vertex -34.3288 -77.2842 0
      vertex -34.3288 -77.2842 3
    endloop
  endfacet
  facet normal -0.932892 -0.360156 0
    outer loop
      vertex -35.375 -75.3667 0
      vertex -36.9482 -71.2918 3
      vertex -36.9482 -71.2918 0
    endloop
  endfacet
  facet normal -0.932892 -0.360156 0
    outer loop
      vertex -36.9482 -71.2918 3
      vertex -35.375 -75.3667 0
      vertex -35.375 -75.3667 3
    endloop
  endfacet
  facet normal -0.974232 -0.225547 0
    outer loop
      vertex -36.9482 -71.2918 0
      vertex -37.9387 -67.0132 3
      vertex -37.9387 -67.0132 0
    endloop
  endfacet
  facet normal -0.974232 -0.225547 0
    outer loop
      vertex -37.9387 -67.0132 3
      vertex -36.9482 -71.2918 0
      vertex -36.9482 -71.2918 3
    endloop
  endfacet
  facet normal -0.992374 -0.123264 0
    outer loop
      vertex -37.9387 -67.0132 0
      vertex -38.4782 -62.6703 3
      vertex -38.4782 -62.6703 0
    endloop
  endfacet
  facet normal -0.992374 -0.123264 0
    outer loop
      vertex -38.4782 -62.6703 3
      vertex -37.9387 -67.0132 0
      vertex -37.9387 -67.0132 3
    endloop
  endfacet
  facet normal -0.995792 -0.0916376 0
    outer loop
      vertex -38.4782 -62.6703 0
      vertex -39.4857 -51.7218 3
      vertex -39.4857 -51.7218 0
    endloop
  endfacet
  facet normal -0.995792 -0.0916376 0
    outer loop
      vertex -39.4857 -51.7218 3
      vertex -38.4782 -62.6703 0
      vertex -38.4782 -62.6703 3
    endloop
  endfacet
  facet normal -0.992949 -0.118543 0
    outer loop
      vertex -39.4857 -51.7218 0
      vertex -40.1371 -46.2654 3
      vertex -40.1371 -46.2654 0
    endloop
  endfacet
  facet normal -0.992949 -0.118543 0
    outer loop
      vertex -40.1371 -46.2654 3
      vertex -39.4857 -51.7218 0
      vertex -39.4857 -51.7218 3
    endloop
  endfacet
  facet normal -0.984988 -0.172624 0
    outer loop
      vertex -40.1371 -46.2654 0
      vertex -41.0859 -40.8517 3
      vertex -41.0859 -40.8517 0
    endloop
  endfacet
  facet normal -0.984988 -0.172624 0
    outer loop
      vertex -41.0859 -40.8517 3
      vertex -40.1371 -46.2654 0
      vertex -40.1371 -46.2654 3
    endloop
  endfacet
  facet normal -0.956125 -0.292959 0
    outer loop
      vertex -41.0859 -40.8517 0
      vertex -42.2592 -37.0223 3
      vertex -42.2592 -37.0223 0
    endloop
  endfacet
  facet normal -0.956125 -0.292959 0
    outer loop
      vertex -42.2592 -37.0223 3
      vertex -41.0859 -40.8517 0
      vertex -41.0859 -40.8517 3
    endloop
  endfacet
  facet normal -0.882317 -0.470655 0
    outer loop
      vertex -42.2592 -37.0223 0
      vertex -43.1933 -35.2712 3
      vertex -43.1933 -35.2712 0
    endloop
  endfacet
  facet normal -0.882317 -0.470655 0
    outer loop
      vertex -43.1933 -35.2712 3
      vertex -42.2592 -37.0223 0
      vertex -42.2592 -37.0223 3
    endloop
  endfacet
  facet normal -0.729031 -0.684481 0
    outer loop
      vertex -43.1933 -35.2712 0
      vertex -44.5544 -33.8215 3
      vertex -44.5544 -33.8215 0
    endloop
  endfacet
  facet normal -0.729031 -0.684481 0
    outer loop
      vertex -44.5544 -33.8215 3
      vertex -43.1933 -35.2712 0
      vertex -43.1933 -35.2712 3
    endloop
  endfacet
  facet normal -0.432704 -0.901536 0
    outer loop
      vertex -45.571 -33.3336 0
      vertex -44.5544 -33.8215 3
      vertex -45.571 -33.3336 3
    endloop
  endfacet
  facet normal -0.432704 -0.901536 -0
    outer loop
      vertex -44.5544 -33.8215 3
      vertex -45.571 -33.3336 0
      vertex -44.5544 -33.8215 0
    endloop
  endfacet
  facet normal -0.0704286 -0.997517 0
    outer loop
      vertex -46.6697 -33.256 0
      vertex -45.571 -33.3336 3
      vertex -46.6697 -33.256 3
    endloop
  endfacet
  facet normal -0.0704286 -0.997517 -0
    outer loop
      vertex -45.571 -33.3336 3
      vertex -46.6697 -33.256 0
      vertex -45.571 -33.3336 0
    endloop
  endfacet
  facet normal 0.189991 -0.981786 0
    outer loop
      vertex -47.781 -33.4711 0
      vertex -46.6697 -33.256 3
      vertex -47.781 -33.4711 3
    endloop
  endfacet
  facet normal 0.189991 -0.981786 0
    outer loop
      vertex -46.6697 -33.256 3
      vertex -47.781 -33.4711 0
      vertex -46.6697 -33.256 0
    endloop
  endfacet
  facet normal 0.34678 -0.937946 0
    outer loop
      vertex -48.8357 -33.861 0
      vertex -47.781 -33.4711 3
      vertex -48.8357 -33.861 3
    endloop
  endfacet
  facet normal 0.34678 -0.937946 0
    outer loop
      vertex -47.781 -33.4711 3
      vertex -48.8357 -33.861 0
      vertex -47.781 -33.4711 0
    endloop
  endfacet
  facet normal 0.393805 -0.919194 0
    outer loop
      vertex -56.6773 -37.2205 0
      vertex -48.8357 -33.861 3
      vertex -56.6773 -37.2205 3
    endloop
  endfacet
  facet normal 0.393805 -0.919194 0
    outer loop
      vertex -48.8357 -33.861 3
      vertex -56.6773 -37.2205 0
      vertex -48.8357 -33.861 0
    endloop
  endfacet
  facet normal 0.353996 -0.935247 0
    outer loop
      vertex -60.6618 -38.7287 0
      vertex -56.6773 -37.2205 3
      vertex -60.6618 -38.7287 3
    endloop
  endfacet
  facet normal 0.353996 -0.935247 0
    outer loop
      vertex -56.6773 -37.2205 3
      vertex -60.6618 -38.7287 0
      vertex -56.6773 -37.2205 0
    endloop
  endfacet
  facet normal 0.272827 -0.962063 0
    outer loop
      vertex -64.7644 -39.8921 0
      vertex -60.6618 -38.7287 3
      vertex -64.7644 -39.8921 3
    endloop
  endfacet
  facet normal 0.272827 -0.962063 0
    outer loop
      vertex -60.6618 -38.7287 3
      vertex -64.7644 -39.8921 0
      vertex -60.6618 -38.7287 0
    endloop
  endfacet
  facet normal 0.181052 -0.983474 0
    outer loop
      vertex -66.942 -40.293 0
      vertex -64.7644 -39.8921 3
      vertex -66.942 -40.293 3
    endloop
  endfacet
  facet normal 0.181052 -0.983474 0
    outer loop
      vertex -64.7644 -39.8921 3
      vertex -66.942 -40.293 0
      vertex -64.7644 -39.8921 0
    endloop
  endfacet
  facet normal 0.0865754 -0.996245 0
    outer loop
      vertex -69.1529 -40.4851 0
      vertex -66.942 -40.293 3
      vertex -69.1529 -40.4851 3
    endloop
  endfacet
  facet normal 0.0865754 -0.996245 0
    outer loop
      vertex -66.942 -40.293 3
      vertex -69.1529 -40.4851 0
      vertex -66.942 -40.293 0
    endloop
  endfacet
  facet normal -0.044061 -0.999029 0
    outer loop
      vertex -71.3596 -40.3878 0
      vertex -69.1529 -40.4851 3
      vertex -71.3596 -40.3878 3
    endloop
  endfacet
  facet normal -0.044061 -0.999029 -0
    outer loop
      vertex -69.1529 -40.4851 3
      vertex -71.3596 -40.3878 0
      vertex -69.1529 -40.4851 0
    endloop
  endfacet
  facet normal -0.211067 -0.977472 0
    outer loop
      vertex -73.5245 -39.9203 0
      vertex -71.3596 -40.3878 3
      vertex -73.5245 -39.9203 3
    endloop
  endfacet
  facet normal -0.211067 -0.977472 -0
    outer loop
      vertex -71.3596 -40.3878 3
      vertex -73.5245 -39.9203 0
      vertex -71.3596 -40.3878 0
    endloop
  endfacet
  facet normal -0.394591 -0.918857 0
    outer loop
      vertex -75.0288 -39.2744 0
      vertex -73.5245 -39.9203 3
      vertex -75.0288 -39.2744 3
    endloop
  endfacet
  facet normal -0.394591 -0.918857 -0
    outer loop
      vertex -73.5245 -39.9203 3
      vertex -75.0288 -39.2744 0
      vertex -73.5245 -39.9203 0
    endloop
  endfacet
  facet normal -0.55548 -0.83153 0
    outer loop
      vertex -76.3891 -38.3656 0
      vertex -75.0288 -39.2744 3
      vertex -76.3891 -38.3656 3
    endloop
  endfacet
  facet normal -0.55548 -0.83153 -0
    outer loop
      vertex -75.0288 -39.2744 3
      vertex -76.3891 -38.3656 0
      vertex -75.0288 -39.2744 0
    endloop
  endfacet
  facet normal -0.696282 -0.717768 0
    outer loop
      vertex -77.5631 -37.2267 0
      vertex -76.3891 -38.3656 3
      vertex -77.5631 -37.2267 3
    endloop
  endfacet
  facet normal -0.696282 -0.717768 -0
    outer loop
      vertex -76.3891 -38.3656 3
      vertex -77.5631 -37.2267 0
      vertex -76.3891 -38.3656 0
    endloop
  endfacet
  facet normal -0.81639 -0.577501 0
    outer loop
      vertex -77.5631 -37.2267 0
      vertex -78.5086 -35.8902 3
      vertex -78.5086 -35.8902 0
    endloop
  endfacet
  facet normal -0.81639 -0.577501 0
    outer loop
      vertex -78.5086 -35.8902 3
      vertex -77.5631 -37.2267 0
      vertex -77.5631 -37.2267 3
    endloop
  endfacet
  facet normal -0.900215 -0.435446 0
    outer loop
      vertex -78.5086 -35.8902 0
      vertex -79.5343 -33.7697 3
      vertex -79.5343 -33.7697 0
    endloop
  endfacet
  facet normal -0.900215 -0.435446 0
    outer loop
      vertex -79.5343 -33.7697 3
      vertex -78.5086 -35.8902 0
      vertex -78.5086 -35.8902 3
    endloop
  endfacet
  facet normal -0.95782 -0.287368 0
    outer loop
      vertex -79.5343 -33.7697 0
      vertex -80.2097 -31.5186 3
      vertex -80.2097 -31.5186 0
    endloop
  endfacet
  facet normal -0.95782 -0.287368 0
    outer loop
      vertex -80.2097 -31.5186 3
      vertex -79.5343 -33.7697 0
      vertex -79.5343 -33.7697 3
    endloop
  endfacet
  facet normal -0.990531 -0.137291 0
    outer loop
      vertex -80.2097 -31.5186 0
      vertex -80.8567 -26.8506 3
      vertex -80.8567 -26.8506 0
    endloop
  endfacet
  facet normal -0.990531 -0.137291 0
    outer loop
      vertex -80.8567 -26.8506 3
      vertex -80.2097 -31.5186 0
      vertex -80.2097 -31.5186 3
    endloop
  endfacet
  facet normal -1 0 0
    outer loop
      vertex -80.8567 -26.8506 0
      vertex -80.8567 -22.2137 3
      vertex -80.8567 -22.2137 0
    endloop
  endfacet
  facet normal -1 -0 0
    outer loop
      vertex -80.8567 -22.2137 3
      vertex -80.8567 -26.8506 0
      vertex -80.8567 -26.8506 3
    endloop
  endfacet
  facet normal -0.995768 0.0918989 0
    outer loop
      vertex -80.8567 -22.2137 0
      vertex -80.4076 -17.3481 3
      vertex -80.4076 -17.3481 0
    endloop
  endfacet
  facet normal -0.995768 0.0918989 0
    outer loop
      vertex -80.4076 -17.3481 3
      vertex -80.8567 -22.2137 0
      vertex -80.8567 -22.2137 3
    endloop
  endfacet
  facet normal -0.989017 0.147802 0
    outer loop
      vertex -80.4076 -17.3481 0
      vertex -79.6858 -12.518 3
      vertex -79.6858 -12.518 0
    endloop
  endfacet
  facet normal -0.989017 0.147802 0
    outer loop
      vertex -79.6858 -12.518 3
      vertex -80.4076 -17.3481 0
      vertex -80.4076 -17.3481 3
    endloop
  endfacet
  facet normal -0.977928 0.208942 0
    outer loop
      vertex -79.6858 -12.518 0
      vertex -77.645 -2.96615 3
      vertex -77.645 -2.96615 0
    endloop
  endfacet
  facet normal -0.977928 0.208942 0
    outer loop
      vertex -77.645 -2.96615 3
      vertex -79.6858 -12.518 0
      vertex -79.6858 -12.518 3
    endloop
  endfacet
  facet normal -0.965584 0.260091 0
    outer loop
      vertex -77.645 -2.96615 0
      vertex -75.6966 4.2672 3
      vertex -75.6966 4.2672 0
    endloop
  endfacet
  facet normal -0.965584 0.260091 0
    outer loop
      vertex -75.6966 4.2672 3
      vertex -77.645 -2.96615 0
      vertex -77.645 -2.96615 3
    endloop
  endfacet
  facet normal -0.951987 0.306138 0
    outer loop
      vertex -75.6966 4.2672 0
      vertex -73.4032 11.399 3
      vertex -73.4032 11.399 0
    endloop
  endfacet
  facet normal -0.951987 0.306138 0
    outer loop
      vertex -73.4032 11.399 3
      vertex -75.6966 4.2672 0
      vertex -75.6966 4.2672 3
    endloop
  endfacet
  facet normal -0.936367 0.351022 0
    outer loop
      vertex -73.4032 11.399 0
      vertex -71.6163 16.1655 3
      vertex -71.6163 16.1655 0
    endloop
  endfacet
  facet normal -0.936367 0.351022 0
    outer loop
      vertex -71.6163 16.1655 3
      vertex -73.4032 11.399 0
      vertex -73.4032 11.399 3
    endloop
  endfacet
  facet normal -0.920227 0.391385 0
    outer loop
      vertex -71.6163 16.1655 0
      vertex -69.6228 20.8527 3
      vertex -69.6228 20.8527 0
    endloop
  endfacet
  facet normal -0.920227 0.391385 0
    outer loop
      vertex -69.6228 20.8527 3
      vertex -71.6163 16.1655 0
      vertex -71.6163 16.1655 3
    endloop
  endfacet
  facet normal -0.901841 0.432069 0
    outer loop
      vertex -69.6228 20.8527 0
      vertex -67.4217 25.4469 3
      vertex -67.4217 25.4469 0
    endloop
  endfacet
  facet normal -0.901841 0.432069 0
    outer loop
      vertex -67.4217 25.4469 3
      vertex -69.6228 20.8527 0
      vertex -69.6228 20.8527 3
    endloop
  endfacet
  facet normal -0.881037 0.473048 0
    outer loop
      vertex -67.4217 25.4469 0
      vertex -65.0124 29.9342 3
      vertex -65.0124 29.9342 0
    endloop
  endfacet
  facet normal -0.881037 0.473048 0
    outer loop
      vertex -65.0124 29.9342 3
      vertex -67.4217 25.4469 0
      vertex -67.4217 25.4469 3
    endloop
  endfacet
  facet normal -0.85763 0.514267 0
    outer loop
      vertex -65.0124 29.9342 0
      vertex -62.3938 34.3011 3
      vertex -62.3938 34.3011 0
    endloop
  endfacet
  facet normal -0.85763 0.514267 0
    outer loop
      vertex -62.3938 34.3011 3
      vertex -65.0124 29.9342 0
      vertex -65.0124 29.9342 3
    endloop
  endfacet
  facet normal -0.831436 0.55562 0
    outer loop
      vertex -62.3938 34.3011 0
      vertex -59.5653 38.5337 3
      vertex -59.5653 38.5337 0
    endloop
  endfacet
  facet normal -0.831436 0.55562 0
    outer loop
      vertex -59.5653 38.5337 3
      vertex -62.3938 34.3011 0
      vertex -62.3938 34.3011 3
    endloop
  endfacet
  facet normal -0.802272 0.596958 0
    outer loop
      vertex -59.5653 38.5337 0
      vertex -56.526 42.6183 3
      vertex -56.526 42.6183 0
    endloop
  endfacet
  facet normal -0.802272 0.596958 0
    outer loop
      vertex -56.526 42.6183 3
      vertex -59.5653 38.5337 0
      vertex -59.5653 38.5337 3
    endloop
  endfacet
  facet normal -0.769973 0.638077 0
    outer loop
      vertex -56.526 42.6183 0
      vertex -53.2751 46.5413 3
      vertex -53.2751 46.5413 0
    endloop
  endfacet
  facet normal -0.769973 0.638077 0
    outer loop
      vertex -53.2751 46.5413 3
      vertex -56.526 42.6183 0
      vertex -56.526 42.6183 3
    endloop
  endfacet
  facet normal -0.725157 0.688584 0
    outer loop
      vertex -53.2751 46.5413 0
      vertex -47.5937 52.5244 3
      vertex -47.5937 52.5244 0
    endloop
  endfacet
  facet normal -0.725157 0.688584 0
    outer loop
      vertex -47.5937 52.5244 3
      vertex -53.2751 46.5413 0
      vertex -53.2751 46.5413 3
    endloop
  endfacet
  facet normal -0.663905 0.747817 0
    outer loop
      vertex -41.4242 58.0016 0
      vertex -47.5937 52.5244 3
      vertex -41.4242 58.0016 3
    endloop
  endfacet
  facet normal -0.663905 0.747817 0
    outer loop
      vertex -47.5937 52.5244 3
      vertex -41.4242 58.0016 0
      vertex -47.5937 52.5244 0
    endloop
  endfacet
  facet normal -0.599989 0.800008 0
    outer loop
      vertex -34.8224 62.9528 0
      vertex -41.4242 58.0016 3
      vertex -34.8224 62.9528 3
    endloop
  endfacet
  facet normal -0.599989 0.800008 0
    outer loop
      vertex -41.4242 58.0016 3
      vertex -34.8224 62.9528 0
      vertex -41.4242 58.0016 0
    endloop
  endfacet
  facet normal -0.533799 0.845611 0
    outer loop
      vertex -27.844 67.358 0
      vertex -34.8224 62.9528 3
      vertex -27.844 67.358 3
    endloop
  endfacet
  facet normal -0.533799 0.845611 0
    outer loop
      vertex -34.8224 62.9528 3
      vertex -27.844 67.358 0
      vertex -34.8224 62.9528 0
    endloop
  endfacet
  facet normal -0.465467 0.885065 0
    outer loop
      vertex -20.1019 71.4296 0
      vertex -27.844 67.358 3
      vertex -20.1019 71.4296 3
    endloop
  endfacet
  facet normal -0.465467 0.885065 0
    outer loop
      vertex -27.844 67.358 3
      vertex -20.1019 71.4296 0
      vertex -27.844 67.358 0
    endloop
  endfacet
  facet normal -0.396756 0.917924 0
    outer loop
      vertex -12.0738 74.8997 0
      vertex -20.1019 71.4296 3
      vertex -12.0738 74.8997 3
    endloop
  endfacet
  facet normal -0.396756 0.917924 0
    outer loop
      vertex -20.1019 71.4296 3
      vertex -12.0738 74.8997 0
      vertex -20.1019 71.4296 0
    endloop
  endfacet
  facet normal -0.330927 0.943656 0
    outer loop
      vertex -3.81763 77.795 0
      vertex -12.0738 74.8997 3
      vertex -3.81763 77.795 3
    endloop
  endfacet
  facet normal -0.330927 0.943656 0
    outer loop
      vertex -12.0738 74.8997 3
      vertex -3.81763 77.795 0
      vertex -12.0738 74.8997 0
    endloop
  endfacet
  facet normal -0.268387 0.963311 0
    outer loop
      vertex 4.60868 80.1426 0
      vertex -3.81763 77.795 3
      vertex 4.60868 80.1426 3
    endloop
  endfacet
  facet normal -0.268387 0.963311 0
    outer loop
      vertex -3.81763 77.795 3
      vertex 4.60868 80.1426 0
      vertex -3.81763 77.795 0
    endloop
  endfacet
  facet normal -0.209726 0.97776 0
    outer loop
      vertex 13.4764 82.0447 0
      vertex 4.60868 80.1426 3
      vertex 13.4764 82.0447 3
    endloop
  endfacet
  facet normal -0.209726 0.97776 0
    outer loop
      vertex 4.60868 80.1426 3
      vertex 13.4764 82.0447 0
      vertex 4.60868 80.1426 0
    endloop
  endfacet
  facet normal -0.151814 0.988409 0
    outer loop
      vertex 22.4391 83.4214 0
      vertex 13.4764 82.0447 3
      vertex 22.4391 83.4214 3
    endloop
  endfacet
  facet normal -0.151814 0.988409 0
    outer loop
      vertex 13.4764 82.0447 3
      vertex 22.4391 83.4214 0
      vertex 13.4764 82.0447 0
    endloop
  endfacet
  facet normal -0.0996107 0.995026 0
    outer loop
      vertex 31.4648 84.3249 0
      vertex 22.4391 83.4214 3
      vertex 31.4648 84.3249 3
    endloop
  endfacet
  facet normal -0.0996107 0.995026 0
    outer loop
      vertex 22.4391 83.4214 3
      vertex 31.4648 84.3249 0
      vertex 22.4391 83.4214 0
    endloop
  endfacet
  facet normal -0.0532413 0.998582 0
    outer loop
      vertex 40.5215 84.8078 0
      vertex 31.4648 84.3249 3
      vertex 40.5215 84.8078 3
    endloop
  endfacet
  facet normal -0.0532413 0.998582 0
    outer loop
      vertex 31.4648 84.3249 3
      vertex 40.5215 84.8078 0
      vertex 31.4648 84.3249 0
    endloop
  endfacet
  facet normal 0 1 -0
    outer loop
      vertex 50.6843 84.8078 0
      vertex 40.5215 84.8078 3
      vertex 50.6843 84.8078 3
    endloop
  endfacet
  facet normal 0 1 0
    outer loop
      vertex 40.5215 84.8078 3
      vertex 50.6843 84.8078 0
      vertex 40.5215 84.8078 0
    endloop
  endfacet
  facet normal 0.0594579 0.998231 -0
    outer loop
      vertex 63.0569 84.0708 0
      vertex 50.6843 84.8078 3
      vertex 63.0569 84.0708 3
    endloop
  endfacet
  facet normal 0.0594579 0.998231 0
    outer loop
      vertex 50.6843 84.8078 3
      vertex 63.0569 84.0708 0
      vertex 50.6843 84.8078 0
    endloop
  endfacet
  facet normal -0.723166 0.690674 0
    outer loop
      vertex 45.7835 44.7774 0
      vertex 49.0605 48.2085 3
      vertex 49.0605 48.2085 0
    endloop
  endfacet
  facet normal -0.723166 0.690674 0
    outer loop
      vertex 49.0605 48.2085 3
      vertex 45.7835 44.7774 0
      vertex 45.7835 44.7774 3
    endloop
  endfacet
  facet normal -0.724151 0.689642 0
    outer loop
      vertex 2.91958 -0.23142 0
      vertex 45.7835 44.7774 3
      vertex 45.7835 44.7774 0
    endloop
  endfacet
  facet normal -0.724151 0.689642 0
    outer loop
      vertex 45.7835 44.7774 3
      vertex 2.91958 -0.23142 0
      vertex 2.91958 -0.23142 3
    endloop
  endfacet
  facet normal -0.703419 -0.710775 0
    outer loop
      vertex 2.91958 -0.23142 0
      vertex 29.917 -26.9494 3
      vertex 2.91958 -0.23142 3
    endloop
  endfacet
  facet normal -0.703419 -0.710775 -0
    outer loop
      vertex 29.917 -26.9494 3
      vertex 2.91958 -0.23142 0
      vertex 29.917 -26.9494 0
    endloop
  endfacet
  facet normal -0.716039 -0.69806 0
    outer loop
      vertex 32.4372 -29.5346 0
      vertex 29.917 -26.9494 3
      vertex 29.917 -26.9494 0
    endloop
  endfacet
  facet normal -0.716039 -0.69806 0
    outer loop
      vertex 29.917 -26.9494 3
      vertex 32.4372 -29.5346 0
      vertex 32.4372 -29.5346 3
    endloop
  endfacet
  facet normal 0.567324 0.823495 -0
    outer loop
      vertex 32.4372 -29.5346 0
      vertex -1.42099 -6.20889 3
      vertex 32.4372 -29.5346 3
    endloop
  endfacet
  facet normal 0.567324 0.823495 0
    outer loop
      vertex -1.42099 -6.20889 3
      vertex 32.4372 -29.5346 0
      vertex -1.42099 -6.20889 0
    endloop
  endfacet
  facet normal -0.927537 0.373731 0
    outer loop
      vertex -19.7485 -51.6946 0
      vertex -1.42099 -6.20889 3
      vertex -1.42099 -6.20889 0
    endloop
  endfacet
  facet normal -0.927537 0.373731 0
    outer loop
      vertex -1.42099 -6.20889 3
      vertex -19.7485 -51.6946 0
      vertex -19.7485 -51.6946 3
    endloop
  endfacet
  facet normal 0.975542 -0.219812 0
    outer loop
      vertex -19.7485 -51.6946 3
      vertex -8.71925 -2.74602 0
      vertex -8.71925 -2.74602 3
    endloop
  endfacet
  facet normal 0.975542 -0.219812 0
    outer loop
      vertex -8.71925 -2.74602 0
      vertex -19.7485 -51.6946 3
      vertex -19.7485 -51.6946 0
    endloop
  endfacet
  facet normal -0.262551 0.964918 0
    outer loop
      vertex -8.71925 -2.74602 0
      vertex -52.2718 -14.5965 3
      vertex -8.71925 -2.74602 3
    endloop
  endfacet
  facet normal -0.262551 0.964918 0
    outer loop
      vertex -52.2718 -14.5965 3
      vertex -8.71925 -2.74602 0
      vertex -52.2718 -14.5965 0
    endloop
  endfacet
  facet normal 0.400174 -0.916439 0
    outer loop
      vertex -52.2718 -14.5965 0
      vertex -8.91681 4.33493 3
      vertex -52.2718 -14.5965 3
    endloop
  endfacet
  facet normal 0.400174 -0.916439 0
    outer loop
      vertex -8.91681 4.33493 3
      vertex -52.2718 -14.5965 0
      vertex -8.91681 4.33493 0
    endloop
  endfacet
  facet normal 0.966564 0.256426 0
    outer loop
      vertex -8.91681 4.33493 3
      vertex -18.058 38.7914 0
      vertex -18.058 38.7914 3
    endloop
  endfacet
  facet normal 0.966564 0.256426 0
    outer loop
      vertex -18.058 38.7914 0
      vertex -8.91681 4.33493 3
      vertex -8.91681 4.33493 0
    endloop
  endfacet
  facet normal -0.863716 -0.503978 0
    outer loop
      vertex 0.0465641 7.76393 0
      vertex -18.058 38.7914 3
      vertex -18.058 38.7914 0
    endloop
  endfacet
  facet normal -0.863716 -0.503978 0
    outer loop
      vertex -18.058 38.7914 3
      vertex 0.0465641 7.76393 0
      vertex 0.0465641 7.76393 3
    endloop
  endfacet
  facet normal 0.64372 -0.765261 0
    outer loop
      vertex 0.0465641 7.76393 0
      vertex 52.2718 51.6946 3
      vertex 0.0465641 7.76393 3
    endloop
  endfacet
  facet normal 0.64372 -0.765261 0
    outer loop
      vertex 52.2718 51.6946 3
      vertex 0.0465641 7.76393 0
      vertex 52.2718 51.6946 0
    endloop
  endfacet
  facet normal -0.735502 0.677523 0
    outer loop
      vertex 49.0605 48.2085 0
      vertex 52.2718 51.6946 3
      vertex 52.2718 51.6946 0
    endloop
  endfacet
  facet normal -0.735502 0.677523 0
    outer loop
      vertex 52.2718 51.6946 3
      vertex 49.0605 48.2085 0
      vertex 49.0605 48.2085 3
    endloop
  endfacet
endsolid OpenSCAD_Model
