<?xml version="1.0" encoding="UTF-8" ?>
<!DOCTYPE svg PUBLIC "-//W3C//DTD SVG 1.1//EN" "http://www.w3.org/Graphics/SVG/1.1/DTD/svg11.dtd">
<svg width="573pt" height="601pt" viewBox="0 0 573 601" version="1.1" xmlns="http://www.w3.org/2000/svg">
<path fill="#fdfdfd" d=" M 0.00 0.00 L 430.08 0.00 C 387.27 1.37 344.45 6.22 302.83 16.53 C 262.71 26.37 223.65 41.13 187.84 61.83 C 154.07 81.32 123.33 106.16 97.73 135.59 C 66.01 171.85 42.32 214.74 26.41 260.11 C 20.47 276.79 15.69 293.85 11.38 311.01 C 5.88 333.40 1.39 356.14 0.00 379.21 L 0.00 0.00 Z" />
<path fill="#0b0b0b" d=" M 430.08 0.00 L 466.09 0.00 C 495.34 1.07 524.62 3.15 553.47 8.23 C 565.13 48.69 572.05 90.56 573.00 132.68 L 573.00 148.01 C 572.01 192.54 564.02 236.96 548.63 278.78 C 523.95 346.62 481.29 406.74 430.54 457.59 C 388.10 500.50 339.81 537.11 290.12 571.16 C 268.75 585.08 245.51 597.89 219.80 601.00 L 204.89 601.00 C 190.86 599.55 177.72 592.03 169.26 580.77 C 156.56 564.17 151.85 543.01 150.16 522.56 C 147.54 496.75 146.34 470.69 140.92 445.25 C 138.55 436.37 136.30 426.25 128.63 420.34 C 124.13 416.88 118.20 418.41 113.46 420.48 C 94.87 428.14 76.77 437.44 57.02 441.85 C 46.87 444.11 36.05 445.16 25.98 441.95 C 18.60 439.57 12.18 434.40 8.32 427.67 C 2.51 418.05 0.83 406.66 0.00 395.64 L 0.00 379.21 C 1.39 356.14 5.88 333.40 11.38 311.01 C 15.69 293.85 20.47 276.79 26.41 260.11 C 42.32 214.74 66.01 171.85 97.73 135.59 C 123.33 106.16 154.07 81.32 187.84 61.83 C 223.65 41.13 262.71 26.37 302.83 16.53 C 344.45 6.22 387.27 1.37 430.08 0.00 Z" />
<path fill="#fdfdfd" d=" M 466.09 0.00 L 573.00 0.00 L 573.00 132.68 C 572.05 90.56 565.13 48.69 553.47 8.23 C 524.62 3.15 495.34 1.07 466.09 0.00 Z" />
<path fill="#fdfdfd" d=" M 274.46 272.69 C 336.16 220.83 397.83 168.93 459.51 117.03 C 452.24 125.54 444.10 133.29 436.52 141.54 C 385.89 194.70 335.19 247.79 284.64 301.02 C 316.48 332.63 348.41 364.14 380.30 395.69 C 383.26 398.75 386.45 401.61 389.23 404.85 C 349.26 377.27 309.29 349.70 269.26 322.20 C 247.60 375.92 226.17 429.73 204.32 483.37 C 217.17 425.52 230.46 367.76 243.40 309.93 C 191.97 323.97 140.54 337.99 89.08 351.92 C 140.16 329.30 191.50 307.22 242.70 284.84 C 231.92 244.14 221.11 203.44 210.31 162.75 C 231.90 199.27 253.00 236.09 274.46 272.69 Z" />
<path fill="#fdfdfd" d=" M 548.63 278.78 C 564.02 236.96 572.01 192.54 573.00 148.01 L 573.00 601.00 L 219.80 601.00 C 245.51 597.89 268.75 585.08 290.12 571.16 C 339.81 537.11 388.10 500.50 430.54 457.59 C 481.29 406.74 523.95 346.62 548.63 278.78 Z" />
<path fill="#fdfdfd" d=" M 0.00 395.64 C 0.83 406.66 2.51 418.05 8.32 427.67 C 12.18 434.40 18.60 439.57 25.98 441.95 C 36.05 445.16 46.87 444.11 57.02 441.85 C 76.77 437.44 94.87 428.14 113.46 420.48 C 118.20 418.41 124.13 416.88 128.63 420.34 C 136.30 426.25 138.55 436.37 140.92 445.25 C 146.34 470.69 147.54 496.75 150.16 522.56 C 151.85 543.01 156.56 564.17 169.26 580.77 C 177.72 592.03 190.86 599.55 204.89 601.00 L 0.00 601.00 L 0.00 395.64 Z" />
</svg>
